<svg width="20" height="20" viewBox="0 0 20 20" fill="none" xmlns="http://www.w3.org/2000/svg">
<path d="M9.99996 10C10.4602 10 10.8333 9.62694 10.8333 9.16671C10.8333 8.70647 10.4602 8.33337 9.99996 8.33337C9.53972 8.33337 9.16663 8.70647 9.16663 9.16671C9.16663 9.62694 9.53972 10 9.99996 10Z" fill="black"/>
<path d="M13.3333 10C13.7936 10 14.1667 9.62694 14.1667 9.16671C14.1667 8.70647 13.7936 8.33337 13.3333 8.33337C12.8731 8.33337 12.5 8.70647 12.5 9.16671C12.5 9.62694 12.8731 10 13.3333 10Z" fill="black"/>
<path d="M6.66659 10C7.12682 10 7.49992 9.62694 7.49992 9.16671C7.49992 8.70647 7.12682 8.33337 6.66659 8.33337C6.20635 8.33337 5.83325 8.70647 5.83325 9.16671C5.83325 9.62694 6.20635 10 6.66659 10Z" fill="black"/>
<path d="M15.8333 2.5H4.16663C3.50358 2.5 2.8677 2.76339 2.39886 3.23223C1.93002 3.70107 1.66663 4.33696 1.66663 5V17.5C1.66688 17.6477 1.70637 17.7926 1.78104 17.92C1.85572 18.0474 1.9629 18.1526 2.09163 18.225C2.21617 18.2956 2.3568 18.3329 2.49996 18.3333C2.64953 18.3333 2.79633 18.293 2.92496 18.2167L6.66663 15.95C6.80493 15.8677 6.96412 15.8271 7.12496 15.8333H15.8333C16.4963 15.8333 17.1322 15.5699 17.6011 15.1011C18.0699 14.6323 18.3333 13.9964 18.3333 13.3333V5C18.3333 4.33696 18.0699 3.70107 17.6011 3.23223C17.1322 2.76339 16.4963 2.5 15.8333 2.5ZM16.6666 13.3333C16.6666 13.5543 16.5788 13.7663 16.4225 13.9226C16.2663 14.0789 16.0543 14.1667 15.8333 14.1667H7.12496C6.66981 14.1663 6.2232 14.2902 5.83329 14.525L3.33329 16.025V5C3.33329 4.77899 3.42109 4.56702 3.57737 4.41074C3.73365 4.25446 3.94561 4.16667 4.16663 4.16667H15.8333C16.0543 4.16667 16.2663 4.25446 16.4225 4.41074C16.5788 4.56702 16.6666 4.77899 16.6666 5V13.3333Z" fill="black"/>
</svg>
